<svg xmlns="http://www.w3.org/2000/svg" xmlns:svg="http://www.w3.org/2000/svg" id="svg4543" width="485.855" height="485.857" version="1.1" viewBox="0 0 128.549 128.55"><metadata id="metadata4540"/><g id="layer1" transform="translate(-39.442039,-40.637613)"><g id="layer2" style="display:none"><rect style="fill:#666;fill-opacity:1;stroke-width:.27813107" id="rect831" width="142.596" height="143.056" x="36.912" y="37.171"/></g><g id="g5186" transform="translate(1.0583346,1.851866)"><path id="path5105" d="M 388,146.5918 A 242.92773,242.92871 0 0 0 145.07227,389.51953 242.92773,242.92871 0 0 0 388,632.44922 242.92773,242.92871 0 0 0 630.92773,389.51953 242.92773,242.92871 0 0 0 388,146.5918 Z m 0,10 A 232.92773,232.92871 0 0 1 620.92773,389.51953 232.92773,232.92871 0 0 1 388,622.44922 232.92773,232.92871 0 0 1 155.07227,389.51953 232.92773,232.92871 0 0 1 388,156.5918 Z" transform="scale(0.26458333)" style="fill:#fff;fill-opacity:1;stroke-width:1.12989867"/><path style="fill:#fff;fill-opacity:1;stroke-width:.29306456" id="ellipse5130" d="m 102.65833,40.051097 a 63.008755,63.00902 0 0 0 -63.008753,63.009283 63.008755,63.00902 0 0 0 63.008753,63.00876 63.008755,63.00902 0 0 0 63.00876,-63.00876 63.008755,63.00902 0 0 0 -63.00876,-63.009283 z m -39.513148,32.79431 h 79.026298 a 4.3907643,6.0435574 0 1 1 0,12.086202 H 63.145182 a 4.3907643,6.0435574 0 1 1 0,-12.086202 z m 0,24.171874 h 79.026298 a 4.3907643,6.0435574 0 1 1 0,12.086199 H 63.145182 a 4.3907643,6.0435574 0 1 1 0,-12.086199 z m -0.594905,24.171869 h 53.247233 a 3.8037628,6.0435574 0 1 1 0,12.08621 H 62.550277 a 3.8037628,6.0435574 0 1 1 0,-12.08621 z"/></g></g></svg>