<svg xmlns="http://www.w3.org/2000/svg" xmlns:svg="http://www.w3.org/2000/svg" id="svg4543" width="485.855" height="485.857" version="1.1" viewBox="0 0 128.549 128.55"><metadata id="metadata4540"/><g id="layer1" transform="translate(-39.442039,-40.637613)"><g id="g5186" transform="translate(1.0583346,1.851866)"><path id="path5105" d="M 388,146.5918 A 242.92773,242.92871 0 0 0 145.07227,389.51953 242.92773,242.92871 0 0 0 388,632.44922 242.92773,242.92871 0 0 0 630.92773,389.51953 242.92773,242.92871 0 0 0 388,146.5918 Z m 0,10 A 232.92773,232.92871 0 0 1 620.92773,389.51953 232.92773,232.92871 0 0 1 388,622.44922 232.92773,232.92871 0 0 1 155.07227,389.51953 232.92773,232.92871 0 0 1 388,156.5918 Z" transform="scale(0.26458333)" style="fill:#7dacda;fill-opacity:1;stroke-width:1.12989867"/><path style="fill:#4186c9;fill-opacity:1;stroke-width:1.08338702" id="ellipse5130" d="M 392,163.58984 A 232.92773,232.92871 0 0 0 159.07227,396.51953 232.92773,232.92871 0 0 0 392,629.44727 232.92773,232.92871 0 0 0 624.92773,396.51953 232.92773,232.92871 0 0 0 392,163.58984 Z M 245.92969,284.82227 h 292.14062 a 16.231566,22.341532 0 1 1 0,44.67968 H 245.92969 a 16.231566,22.341532 0 1 1 0,-44.67968 z m 0,89.35742 h 292.14062 a 16.231566,22.341532 0 1 1 0,44.67969 H 245.92969 a 16.231566,22.341532 0 1 1 0,-44.67969 z m -2.19922,89.35742 h 196.8418 a 14.061567,22.341532 0 1 1 0,44.67969 h -196.8418 a 14.061567,22.341532 0 1 1 0,-44.67969 z" transform="matrix(0.26458333,0,0,0.26458333,-1.0583346,-1.851866)"/></g></g></svg>